<?xml version="1.0" standalone="no"?><!DOCTYPE svg PUBLIC "-//W3C//DTD SVG 1.1//EN" "http://www.w3.org/Graphics/SVG/1.1/DTD/svg11.dtd"><svg t="1600048321624" class="icon" viewBox="0 0 1024 1024" version="1.1" xmlns="http://www.w3.org/2000/svg" p-id="2702" xmlns:xlink="http://www.w3.org/1999/xlink" width="200" height="200"><defs><style type="text/css"></style></defs><path d="M969.152 219.424q22.848 0 38.848 16t16 38.848l0 694.848q0 22.848-16 38.848t-38.848 16l-548.576 0q-22.848 0-38.848-16t-16-38.848l0-164.576-310.848 0q-22.848 0-38.848-16t-16-38.848l0-384q0-22.848 11.424-50.272t27.424-43.424l233.152-233.152q16-16 43.424-27.424t50.272-11.424l237.728 0q22.848 0 38.848 16t16 38.848l0 187.424q38.848-22.848 73.152-22.848l237.728 0zM658.272 341.152l-170.848 170.848 170.848 0 0-170.848zM292.576 121.728l-170.848 170.848 170.848 0 0-170.848zM404.576 491.424l180.576-180.576 0-237.728-219.424 0 0 237.728q0 22.848-16 38.848t-38.848 16l-237.728 0 0 365.728 292.576 0 0-146.272q0-22.848 11.424-50.272t27.424-43.424zM950.848 950.848l0-658.272-219.424 0 0 237.728q0 22.848-16 38.848t-38.848 16l-237.728 0 0 365.728 512 0z" p-id="2703"></path></svg>