<?xml version="1.0" standalone="no"?><!DOCTYPE svg PUBLIC "-//W3C//DTD SVG 1.1//EN" "http://www.w3.org/Graphics/SVG/1.1/DTD/svg11.dtd"><svg t="1626595387131" class="icon" viewBox="0 0 1024 1024" version="1.1" xmlns="http://www.w3.org/2000/svg" p-id="9588" xmlns:xlink="http://www.w3.org/1999/xlink" width="200" height="200"><defs><style type="text/css"></style></defs><path d="M492.8 803.2c4.8 4.8 11.2 8 17.6 9.6 14.4 1.6 28.8-4.8 35.2-17.6l108.80000001-209.6 235.19999999 36.8c14.4 1.6 27.2-3.2 33.6-16 6.4-12.8 1.6-25.6-8-35.2L752 408 856 192c6.4-12.8 6.4-30.4-3.2-40-9.6-9.6-27.2-11.2-40-4.8l-222.4 104-160-161.6c-9.6-9.6-24-14.4-36.8-8-12.8 6.4-17.6 17.6-16 32l36.80000001 233.6-212.80000001 107.19999999c-12.8 6.4-19.2 20.8-17.6 35.20000001 1.6 6.4 4.8 12.8 9.6 17.6 4.8 4.8 11.2 8 17.6 9.6l235.2 36.8L483.2 784c1.6 8 4.8 14.4 9.6 19.2zM691.19999999 100.8" fill="#FFD766" p-id="9589"></path><path d="M424 649.60000001l-8-33.60000001c-1.6-17.6-16-33.6-35.2-36.8l-28.8-4.79999999L19.2 864c-19.2 16-24 41.6-12.8 64 6.4 11.2 12.8 24 22.4 33.6 12.8 12.8 28.8 22.4 43.2 30.4 22.4 12.8 51.2 6.4 67.19999999-12.8L424 649.60000001z" fill="#FF5562" p-id="9590"></path><path d="M699.2 88c1.6 0 1.6-1.6 1.6-3.2s0-4.8-1.6-6.4l-35.2-22.4 11.2-38.4c0-1.6 0-4.8-1.6-6.4-1.6-1.6-4.8 0-6.4 0l-32 24-36.8-22.4c-1.6-1.6-4.8-1.6-6.4 0-1.6 1.6-3.2 4.8-1.6 6.40000001l14.4 39.99999998-32 24.00000001c-1.6 1.6-3.2 3.2-1.6 6.4 1.6 1.6 3.2 3.2 4.8 3.2l41.6-1.6 14.4 38.4c1.6 1.6 3.2 3.2 6.4 3.2 1.6 0 3.2 0 3.2-1.6 1.6 0 1.6-1.6 1.6-3.2l11.2-38.4 41.6-1.6 3.2 0z m0 0" fill="#5ACC9B" p-id="9591"></path><path d="M963.2 464l4.8 0c3.2-1.6 4.8-4.8 3.2-8.00000001l-8-51.19999999L1009.6 380.8c3.2-1.6 4.8-4.8 3.2-6.4 0-3.2-3.2-4.8-6.4-4.8l-49.6-8-9.6-51.2c-1.6-3.2-3.2-6.4-6.4-6.4s-6.4 1.6-8 4.8l-25.60000001 46.4-49.59999999-8c-3.2 0-6.4 0-8 3.2-1.6 3.2 0 4.8 1.6 8l36.8 36.8-24 46.4c0 1.6 0 4.8 3.2 6.4 1.6 1.6 3.2 1.6 4.8 1.6l4.8 0 46.4-24L960 462.4c0 1.6 1.6 1.6 3.2 1.6z" fill="#6CCBFF" p-id="9592"></path><path d="M838.39999999 915.2l4.8 0c3.2-1.6 4.8-4.8 4.8-8l-9.59999999-56 51.20000001-25.6c3.2-1.6 4.8-4.8 4.8-8s-3.2-4.8-6.4-6.4l-56.00000001-9.6-11.19999999-57.6c0-3.2-3.2-6.4-6.4-8-3.2 0-6.4 1.6-8 4.8l-28.80000001 51.2-54.4-9.6c-3.2 0-6.4 0-8 3.2-1.6 3.2-1.6 6.4 1.6 8l41.59999999 40-25.59999999 51.2c-1.6 3.2-1.6 6.4 1.6 9.6 1.6 1.6 3.2 1.6 4.8 1.6l4.8 0 51.2-25.6 41.59999999 40c-1.6 3.2 0 4.8 1.6 4.8z" fill="#8095FF" p-id="9593"></path></svg>